<?xml version="1.0" encoding="UTF-8" standalone="no"?>
<svg width="6px" height="12px" viewBox="0 0 6 12" version="1.1" xmlns="http://www.w3.org/2000/svg" xmlns:xlink="http://www.w3.org/1999/xlink">
    <!-- Generator: Sketch 48.2 (47327) - http://www.bohemiancoding.com/sketch -->
    <title>Page 1</title>
    <desc>Created with Sketch.</desc>
    <defs></defs>
    <g id="damilolaodelola.com---mobile---home-#3" stroke="none" stroke-width="1" fill="none" fill-rule="evenodd" transform="translate(-184.000000, -591.000000)">
        <g id="footer" transform="translate(132.000000, 588.000000)" fill="#000000">
            <g id="social" transform="translate(30.000000, 0.000000)">
                <path d="M27.9883244,3.57210408 C27.9742839,3.48261595 27.9157814,3.40793481 27.8350553,3.37646284 C27.3442317,3.18761525 26.6954364,3 25.9992407,3 C25.4534236,3 24.874838,3.11725993 24.336554,3.44804893 C24.0656898,3.6140667 23.8521554,3.8238956 23.6901101,4.06026712 C23.4455744,4.41513249 23.3151145,4.82368346 23.2419844,5.23841192 C23.1828978,5.57352831 23.1606667,5.91543835 23.1483815,6.24684194 C23.0079772,6.25054526 22.8494364,6.25116143 22.7043594,6.25116143 C22.5779955,6.25116143 22.4621601,6.25054526 22.3779175,6.24931135 C22.3357962,6.2486936 22.3018655,6.2486936 22.2784648,6.24807585 C22.2550641,6.24745968 22.2421933,6.24745968 22.2421933,6.24745968 C22.1784266,6.24622419 22.116415,6.27276365 22.0707877,6.32028442 C22.0257415,6.36780519 22,6.43322327 22,6.50048986 L22.0093603,8.1687252 C22.0105314,8.30881968 22.1175892,8.43102317 22.2486392,8.43102317 L22.4147881,8.43102317 C22.6476271,8.43102317 23.0822889,8.42053094 23.4163389,8.42731985 C23.4654796,9.57337651 23.4771807,11.2909211 23.4771807,12.6234239 C23.4771807,13.1850373 23.4748414,13.6750488 23.4730862,14.0274495 C23.4719165,14.2033418 23.4707454,14.342817 23.4701613,14.4403295 C23.4695757,14.5372227 23.4689916,14.5890645 23.4689916,14.5890645 C23.468406,14.6563343 23.4929779,14.7205185 23.5386082,14.7686538 C23.5836544,14.8161746 23.6450818,14.8427125 23.7088456,14.8420947 L25.8254688,14.8309863 C25.8892356,14.8303686 25.9489078,14.8038323 25.9933699,14.7556937 C26.0384161,14.708173 26.0624024,14.6446066 26.0618168,14.5767206 C26.0618168,14.5767206 26.0507013,13.2035508 26.0378305,11.7224409 C26.026715,10.4486321 26.0144298,9.09709129 26.0074104,8.467494 C26.1378688,8.46502459 26.2899712,8.46440842 26.4379836,8.46440842 C26.6111414,8.46440842 26.7790425,8.46564233 26.9042458,8.46687625 C26.9662573,8.467494 27.0183244,8.46811017 27.0540104,8.46872791 C27.0902818,8.46934566 27.1101721,8.46934566 27.1101721,8.46934566 C27.1739389,8.47057958 27.2353663,8.4440417 27.2804095,8.39713867 C27.3260413,8.35023407 27.3511973,8.28605148 27.3517813,8.21878174 L27.3547062,6.67343241 C27.3547062,6.60616267 27.3301359,6.52037787 27.2845041,6.47286183 C27.2394579,6.42534106 27.1792016,6.37720254 27.1154348,6.37720254 L27.0364579,6.37720254 C26.9855619,6.37720254 26.9136045,6.4000371 26.8276112,6.4000371 C26.5620186,6.4000371 26.1606944,6.40991158 25.8424446,6.40435659 C25.8482944,6.2327933 25.8629205,6.08714067 25.8869068,5.95815617 C25.9097219,5.83225567 25.9418988,5.7304268 25.97934,5.64648576 C26.0074208,5.58353551 26.0390122,5.53416308 26.0723573,5.4921973 C26.1232533,5.42986479 26.1782453,5.38789744 26.2496187,5.35642231 C26.3204064,5.32556493 26.4093276,5.30704987 26.5234033,5.30704987 C26.7258252,5.30643213 27.0042825,5.36938238 27.3529645,5.51194943 C27.3553038,5.51318335 27.3582287,5.51318335 27.3611551,5.51441726 C27.36408,5.51565276 27.3664193,5.51688667 27.3693442,5.51812059 C27.37461,5.51997225 27.3792901,5.51997225 27.3845543,5.52120617 C27.392745,5.52305783 27.40035,5.5249095 27.4085406,5.52614341 C27.4161457,5.52737891 27.4237507,5.52737891 27.4313558,5.52799508 C27.4395464,5.52799508 27.4471514,5.52861283 27.4547565,5.52799508 C27.4623615,5.52737891 27.4699666,5.52614341 27.4775716,5.5249095 C27.4851767,5.52367558 27.4927817,5.52182392 27.5003868,5.51997225 C27.5074077,5.51812059 27.5150128,5.51503501 27.5214467,5.51256718 C27.5290517,5.51009777 27.5360727,5.50701219 27.5430921,5.50330886 C27.5501131,5.49960553 27.5559629,5.49590378 27.5623983,5.49158271 C27.5688337,5.48726321 27.5758547,5.48294372 27.5817045,5.47800647 C27.5875558,5.4736854 27.59282,5.46813199 27.5986698,5.462577 C27.6045211,5.457022 27.6103709,5.45146859 27.6156351,5.44529585 C27.6209008,5.43912469 27.6249954,5.43295353 27.6296756,5.4267808 C27.6343557,5.41999189 27.6390358,5.41320298 27.6431319,5.40579791 C27.6472265,5.399009 27.650737,5.39098617 27.6536619,5.3835811 C27.6560012,5.37864386 27.6589261,5.37370661 27.6606813,5.36876937 C27.6618525,5.36568379 27.6624366,5.36321438 27.6630221,5.35951263 C27.6636062,5.35704322 27.6653615,5.35457539 27.665947,5.35148823 C27.7139181,5.18423811 27.7964055,4.90405547 27.8672007,4.60843703 C27.9023026,4.46031972 27.9350621,4.30788924 27.9596339,4.16100427 C27.9836202,4.01412088 28,3.87402798 28,3.74319497 C28,3.6845658 27.9964895,3.62840446 27.9882989,3.57224785 L27.9883244,3.57210408 Z M25.9933116,4.90780401 C25.8755221,4.9723433 25.7723776,5.06356729 25.6897618,5.17341196 C25.5655275,5.33848955 25.4858251,5.541409 25.4360186,5.7716375 C25.385621,6.00248559 25.3645252,6.26437607 25.3645252,6.5597555 C25.3645252,6.59016402 25.3651118,6.62057096 25.3651118,6.65159907 C25.3674551,6.78626336 25.4688369,6.85887145 25.596007,6.86320849 C25.9353065,6.87499951 26.4908442,6.83962643 26.8307437,6.83962643 L26.8817264,6.83962643 L26.8799682,7.92190057 C26.7580772,7.92065983 26.6021918,7.93865616 26.4410407,7.93865616 C26.1872975,7.93865616 25.924178,7.95044719 25.755991,7.95913557 C25.6276537,7.96596204 25.5274511,8.08324958 25.5292063,8.21977101 C25.5356526,8.65106024 25.5503021,10.2521429 25.5631947,11.7408755 C25.5696411,12.4855595 25.5755009,13.2041737 25.580189,13.7354372 C25.5825338,13.9929748 25.584292,14.2070784 25.5854637,14.3591131 L23.945749,14.3684211 C23.9480923,14.0339288 23.9516087,13.3984651 23.9516087,12.6375767 C23.9516087,11.1990934 23.938716,9.31632562 23.8789437,8.15279155 C23.8724974,8.02185107 23.7728753,7.91882969 23.6492336,7.91387308 C23.3263464,7.90208205 22.7895461,7.89960056 22.4801306,7.89960056 L22.4736842,6.74161091 C22.541076,6.74223208 22.6190157,6.74285166 22.701054,6.74285166 C22.9342895,6.74285166 23.2015045,6.74037017 23.3902142,6.72857914 C23.5138634,6.72113151 23.6117332,6.61439425 23.6146586,6.48344901 C23.6275513,5.95223312 23.6562651,5.41234314 23.7892965,4.95374486 C23.8555166,4.72413593 23.9469371,4.51500482 24.0735087,4.33130815 C24.2000803,4.14761147 24.3606613,3.98812597 24.5757294,3.85532994 C25.0275436,3.57669498 25.5168627,3.47368631 26.0009161,3.47368631 C26.5517732,3.47306515 27.0903137,3.61021252 27.5263158,3.76660331 C27.5227993,3.84541511 27.5116664,3.94284918 27.4940856,4.04833615 C27.4618553,4.2432011 27.4096995,4.46535922 27.3569586,4.66889825 C27.3329315,4.76198415 27.3083192,4.85072031 27.2854653,4.932012 C27.0041784,4.83582345 26.7533606,4.78369636 26.5254057,4.78307519 C26.3314303,4.78245403 26.1509417,4.82092977 25.9933011,4.90781037 L25.9933116,4.90780401 Z" id="Page-1"></path>
            </g>
        </g>
    </g>
</svg>