<?xml version="1.0" encoding="UTF-8" standalone="no"?>
<svg width="10px" height="10px" viewBox="0 0 10 10" version="1.1" xmlns="http://www.w3.org/2000/svg" xmlns:xlink="http://www.w3.org/1999/xlink">
    <!-- Generator: Sketch 48.2 (47327) - http://www.bohemiancoding.com/sketch -->
    <title>Page 1</title>
    <desc>Created with Sketch.</desc>
    <defs></defs>
    <g id="damilolaodelola.com---mobile---home-#3" stroke="none" stroke-width="1" fill="none" fill-rule="evenodd" transform="translate(-203.000000, -593.000000)">
        <g id="footer" transform="translate(132.000000, 588.000000)" fill="#000000">
            <g id="social" transform="translate(30.000000, 0.000000)">
                <g id="Page-1" transform="translate(41.000000, 5.000000)">
                    <path d="M7.315,0.0808333333 L2.685,0.0808333333 C1.99434722,0.0808333333 1.33191667,0.355361111 0.843611111,0.843638889 C0.355305556,1.33191667 0.0808055556,1.99436111 0.0808055556,2.68502778 L0.0808055556,7.31502778 C0.0808055556,8.00568056 0.355333333,8.66811111 0.843611111,9.15641667 C1.33188889,9.64472222 1.99433333,9.91922222 2.685,9.91922222 L7.315,9.91922222 C8.00565278,9.91922222 8.66808333,9.64469444 9.15638889,9.15641667 C9.64469444,8.66813889 9.91919444,8.00569444 9.91919444,7.31502778 L9.91919444,2.68502778 C9.91919444,1.994375 9.64466667,1.33194444 9.15638889,0.843638889 C8.66811111,0.355333333 8.00566667,0.0808333333 7.315,0.0808333333 Z M9.34027778,7.315 C9.34027778,7.85211111 9.12705556,8.36697222 8.74729167,8.74722222 C8.36697222,9.127 7.85211111,9.34020833 7.31506944,9.34020833 L2.68506944,9.34020833 C2.14795833,9.34020833 1.63309722,9.12698611 1.25284722,8.74722222 C0.873069444,8.36690278 0.659861111,7.85204167 0.659861111,7.315 L0.659861111,2.685 C0.659861111,2.14788889 0.873083333,1.63302778 1.25284722,1.25277778 C1.63316667,0.873 2.14802778,0.659791667 2.68506944,0.659791667 L7.31506944,0.659791667 C7.85218056,0.659791667 8.36704167,0.873013889 8.74729167,1.25277778 C9.12706944,1.63309722 9.34027778,2.14795833 9.34027778,2.685 L9.34027778,7.315 Z" id="Fill-1"></path>
                    <path d="M5,2.685 C4.38584722,2.685 3.79719444,2.92913889 3.36319444,3.36316667 C2.92919444,3.79719444 2.68502778,4.38584722 2.68502778,4.99997222 C2.68502778,5.61409722 2.92916667,6.20277778 3.36319444,6.63677778 C3.79722222,7.07077778 4.385875,7.31494444 5,7.31494444 C5.614125,7.31494444 6.20280556,7.07080556 6.63680556,6.63677778 C7.07080556,6.20275 7.31497222,5.61409722 7.31497222,4.99997222 C7.31497222,4.38584722 7.07083333,3.79716667 6.63680556,3.36316667 C6.20277778,2.92916667 5.614125,2.685 5,2.685 Z M5,6.73611111 C4.29795833,6.73611111 3.66481944,6.31293056 3.39625,5.66461111 C3.12715278,5.01573611 3.27580694,4.26863889 3.77222222,3.77225 C4.26863889,3.27583333 5.01570833,3.12718056 5.66458333,3.39627778 C6.31291667,3.66483333 6.73608333,4.29797222 6.73608333,5.00002778 C6.73608333,5.95868056 5.958625,6.73613889 4.99997222,6.73613889 L5,6.73611111 Z" id="Fill-2"></path>
                    <path d="M7.60416667,1.81694444 C7.37033333,1.81694444 7.15929167,1.958 7.06976389,2.17447222 C6.97970278,2.39040278 7.02961667,2.63943056 7.19508889,2.80490278 C7.36056111,2.970375 7.60958889,3.02029167 7.82551944,2.93022778 C8.04199167,2.84070972 8.18304722,2.62965833 8.18304722,2.395825 C8.18304722,2.24228333 8.12174028,2.09525556 8.01322778,1.98675556 C7.90471528,1.87825556 7.7577,1.81693611 7.60415833,1.81693611 L7.60416667,1.81694444 Z" id="Fill-3"></path>
                </g>
            </g>
        </g>
    </g>
</svg>