<?xml version="1.0" encoding="UTF-8" standalone="no"?>
<svg width="217px" height="12px" viewBox="0 0 217 12" version="1.1" xmlns="http://www.w3.org/2000/svg" xmlns:xlink="http://www.w3.org/1999/xlink">
    <!-- Generator: Sketch 48.2 (47327) - http://www.bohemiancoding.com/sketch -->
    <title>Line</title>
    <desc>Created with Sketch.</desc>
    <defs></defs>
    <g id="Page-1" stroke="none" stroke-width="1" fill="none" fill-rule="evenodd" stroke-linecap="square">
        <path d="M2,7.67230001 L11.246959,6.04370326 L33.2120267,10.3247659 C37.5598293,5.9598299 43.1938586,3.74668933 50.1141146,3.68534418 C54.080632,3.65018268 56.6220097,8.04606647 62.246223,9.51951091 C67.8603494,10.9903127 70.7373183,3.70449901 74.4172844,3.68534418 C83.8310868,3.63634379 74.0135687,9.58039072 82.482339,9.51951091 C90.5527912,9.4614945 94.6312831,2.00925807 101.842011,2.00002081 C111.717951,1.98736929 103.035628,7.74695714 111.238552,7.67230001 C119.607101,7.59613548 118.52163,4.37890087 125.116466,4.43319329 C127.194143,4.45029791 146.557474,6.64490724 151.390307,7.67230001 C155.320243,8.50774951 163.329413,4.19692897 168.000247,4.43319329 C173.560113,4.71442747 176.900268,8.02247882 181.924196,7.67230001 C189.077078,7.1737284 198.436753,0.657967125 214.745414,6.04370326 C216.856403,6.74083149 213.396767,6.04370326 211.418172,6.04370326" id="Line" stroke="#F60909" stroke-width="2.5"></path>
    </g>
</svg>