<?xml version="1.0" encoding="UTF-8" standalone="no"?>
<svg width="11px" height="10px" viewBox="0 0 11 10" version="1.1" xmlns="http://www.w3.org/2000/svg" xmlns:xlink="http://www.w3.org/1999/xlink">
    <!-- Generator: Sketch 48.2 (47327) - http://www.bohemiancoding.com/sketch -->
    <title>Page 1</title>
    <desc>Created with Sketch.</desc>
    <defs></defs>
    <g id="damilolaodelola.com---mobile---home-#3" stroke="none" stroke-width="1" fill="none" fill-rule="evenodd" transform="translate(-162.000000, -593.000000)">
        <g id="footer" transform="translate(132.000000, 588.000000)" fill="#000000">
            <g id="social" transform="translate(30.000000, 0.000000)">
                <path d="M7.52535556,6.0705855 C8.13824056,6.0705855 8.69019556,6.3289905 9.07860556,6.7426605 C9.40086556,6.750864 9.43485556,6.7537935 9.59013556,6.7537935 C9.68388556,6.7537935 9.82158556,6.752622 10.0917056,6.750864 C9.92003056,7.353789 9.87432556,7.477434 9.65400556,8.169999 C9.65810656,8.261406 9.66044956,8.352819 9.66044956,8.445384 C9.66044956,11.257284 7.51994956,14.500434 3.60539956,14.500434 C1.73099956,14.500434 0.679199562,13.574064 0.850949562,13.574064 C1.84820956,13.574064 2.76584956,13.234224 3.49409956,12.663519 C2.56304956,12.6459405 -0.827250438,10.492569 1.06544956,6.460719 C2.11544956,7.748019 3.68339956,8.595219 5.45234956,8.683719 C5.41543606,8.527854 5.39727106,8.366139 5.39727106,8.198559 C5.39727106,7.023174 6.35001106,6.070359 7.52547106,6.070359 L7.52535556,6.0705855 Z M10.0924211,6.751224 L10.0930076,6.751224 L10.0924211,6.751224 Z M7.52545756,5.570559 C6.10104256,5.570559 4.93795756,6.709629 4.89865756,8.124009 C3.55569256,7.913079 2.32285756,7.210539 1.45390756,6.144159 C1.35839956,6.0269715 1.21543756,5.960169 1.06660756,5.960169 C1.04609956,5.960169 1.02559156,5.9613405 1.00567006,5.963685 C0.835165062,5.984778 0.686920062,6.0920055 0.614260062,6.247275 C-0.447454938,8.508375 0.0634750618,10.161975 0.679298562,11.150925 C1.12401856,11.86518 1.74746356,12.425925 2.33979856,12.771675 C1.87514356,12.970305 1.37241856,13.07343 0.852098562,13.07343 C0.566168562,13.07343 0.334133562,13.30371 0.334133562,13.586715 C0.334133562,14.078895 1.10816356,14.426955 1.36245856,14.541795 C1.82652856,14.75097 2.59292356,15 3.60720856,15 C6.07170856,15 7.61625856,13.83516 8.47755856,12.85785 C9.54806356,11.643195 10.1620586,10.03485 10.1620586,8.44515 C10.1620586,8.3765955 10.1608871,8.3074545 10.1585441,8.238315 C10.1954576,8.123472 10.2265121,8.025615 10.2546371,7.938315 C10.3782701,7.5516 10.4362721,7.372305 10.5681071,6.909405 C10.5845126,6.8596005 10.5938876,6.80628 10.5938876,6.7512 C10.5938876,6.47523 10.3706426,6.2514 10.0946726,6.2514 L10.0934996,6.2514 L10.0899851,6.2514 L9.92768506,6.2519865 C9.76127506,6.253158 9.66226006,6.253743 9.59018506,6.253743 C9.48998956,6.253743 9.44311456,6.2525715 9.32768506,6.2490555 L9.28784206,6.247884 C8.80737706,5.815464 8.17631206,5.570544 7.52534206,5.570544 L7.52545756,5.570559 Z" id="Page-1"></path>
            </g>
        </g>
    </g>
</svg>