
<svg width="217px" height="37px" viewBox="0 0 217 37" version="1.1" xmlns="http://www.w3.org/2000/svg" xmlns:xlink="http://www.w3.org/1999/xlink">
    <!-- Generator: Sketch 48.2 (47327) - http://www.bohemiancoding.com/sketch -->
    <desc>Created with Sketch.</desc>
    <defs></defs>
    <g id="Page-1" stroke="none" stroke-width="1" fill="none" fill-rule="evenodd">
        <g id="rough_ideas_logo" transform="translate(-7.000000, -8.000000)">
            <text id="Rough-Ideas" font-family="Avenir-Light, Avenir" font-size="36" font-weight="300" fill="#000000">
                <tspan x="15.744" y="36">rough ideas</tspan>
            </text>
            <path d="M9,29.6723 L18.246959,28.0437033 L40.2120267,32.3247659 C44.5598293,27.9598299 50.1938586,25.7466893 57.1141146,25.6853442 C61.080632,25.6501827 63.6220097,30.0460665 69.246223,31.5195109 C74.8603494,32.9903127 77.7373183,25.704499 81.4172844,25.6853442 C90.8310868,25.6363438 81.0135687,31.5803907 89.482339,31.5195109 C97.5527912,31.4614945 101.631283,24.0092581 108.842011,24.0000208 C118.717951,23.9873693 110.035628,29.7469571 118.238552,29.6723 C126.607101,29.5961355 125.52163,26.3789009 132.116466,26.4331933 C134.194143,26.4502979 153.557474,28.6449072 158.390307,29.6723 C162.320243,30.5077495 170.329413,26.196929 175.000247,26.4331933 C180.560113,26.7144275 183.900268,30.0224788 188.924196,29.6723 C196.077078,29.1737284 205.436753,22.6579671 221.745414,28.0437033 C223.856403,28.7408315 220.396767,28.0437033 218.418172,28.0437033" id="Line" stroke="#F60909" stroke-width="2.5" stroke-linecap="square"></path>
        </g>
    </g>
</svg>
